<svg xmlns="http://www.w3.org/2000/svg" viewBox="-449 271.9 160 48.2"><path d="M-411.86 272.86c1.49.53 3.41 1.38 4.18 1.97 1.25.9 0 .98-14.23.98-13.83 0-15.46-.13-14.29-.98.9-.67 3.06-.9 7.82-.98 5.08 0 6.78-.27 7.45-.98 1.03-1.26 5.53-1.32 9.07-.01zm-9.15 5.34c1.17.77 3.33.98 9.6.9 7.71-.13 10.69.45 10.69 1.89 0 .4-8.03.67-21.2.59-11.68 0-21.2-.27-21.2-.59 0-.27.85-1.25 1.97-2.15 1.84-1.57 2.34-1.62 10.24-1.62 6.46-.05 8.67.21 9.9.98zm57.56 9.1c.72.9-.4 3.99-1.49 4.18-.59.13-1.17-.4-1.38-1.17-.27-1.12-.77-1.38-2.55-1.17-1.36.13-2.21.59-2.34 1.3-.19.85.53 1.3 2.82 1.89 3.78.98 5.03 2.93 3.33 5.43-1.62 2.55-3.41 3.19-7.32 2.69-2.82-.32-3.51-.67-3.51-1.62 0-3.06 2.15-4.5 2.93-1.97.53 1.62 4.31 1.84 5.56.32.77-.98.13-1.44-4.76-3.14-2.61-.9-2.15-5.03.72-6.65 1.8-1.07 7.28-1.12 7.99-.09zm14.82.06c.13.13 0 1.04-.32 2.08-.77 2.21-2.47 2.74-3.01.85-.32-1.3-2.47-1.76-4.71-.9-1.3.53-2.93 3.64-2.93 5.67 0 3.01 2.61 3.72 7.71 2.08 2.21-.72 1.84 1.38-.53 2.61-4.58 2.34-9.79.27-9.79-4.04 0-3.14 1.76-6.65 4.18-8.17 1.62-.98 2.74-1.17 5.56-.85 1.95.21 3.71.48 3.84.67zm12.53.32c0 .98-.45 1.3-1.62 1.3-1.89 0-2.55 1.25-3.27 6.07-.45 3.01-.45 3.06 1.25 3.06 2.15 0 2.29 1.76.27 2.29-.85.19-3.14.32-5.08.19-2.69-.13-3.59-.45-3.59-1.17 0-.59.72-1.04 2.02-1.17 1.84-.19 2.02-.45 2.74-3.99 1.04-5.08 1.04-5.29-.85-5.29-.98 0-1.62-.4-1.62-.9 0-1.3 1.04-1.57 5.75-1.62 3.63-.05 4 .06 4 1.23zm19.37.16c.19.85-.19 1.17-1.38 1.17-1.44 0-1.76.4-2.34 3.27-1.17 5.43-1.04 6.01 1.36 5.75 1.62-.13 2.21-.59 2.47-1.84.19-.9.9-1.7 1.57-1.84 1.12-.27 1.17.08.77 2.55-.27 1.49-.59 3.01-.77 3.33-.19.27-2.93.53-6.2.53-5.29 0-5.8-.13-5.8-1.25 0-.85.53-1.38 1.44-1.49 1.17-.13 1.57-.85 2.29-4.12 1.04-5.08 1.04-4.89-.45-4.89s-1.7-.67-.53-1.84c.53-.53 2.15-.77 4.12-.67 2.46.14 3.32.48 3.45 1.34zm8.03.77c-.19 1.57 0 1.7 2.47 1.7 1.76 0 2.61.27 2.61.9 0 .9-1.89 1.7-4.31 1.7-1.44 0-2.21 1.49-2.21 4.18 0 1.12.32 1.17 3.27.77 2.61-.32 3.27-.27 3.27.53 0 1.04-3.27 2.34-5.8 2.34-3.01 0-3.59-.85-3.14-4.44.27-2.55.19-3.41-.59-3.64-1.3-.53-1.12-2.34.27-2.34.72 0 1.44-.77 1.89-2.02.89-2.42 2.54-2.24 2.27.32zm-89.06-3.67l1.04 1.97h-25.14c-22.05 0-25.14-.13-24.79-.98.35-.85 2.34-.98 12.66-.98 10.06 0 12.4-.19 13.06-.98.67-.77 2.82-.98 11.49-.98h10.64l1.04 1.95zm-23.25 4.36c1.12.72 3.99.98 13.25 1.04 10.77.13 11.94.27 12.13 1.25.19 1.12-1.49 1.17-26.23 1.17h-26.5v-1.84c0-1.04.19-2.02.4-2.29.19-.19 6.07-.32 12.98-.32 10.06 0 12.88.22 13.97.99zm26.17 6.73V298h-27.08c-23.62 0-27.08-.13-27.08-.98s1.97-.98 13.65-.98c11.28 0 13.78-.19 14.42-.98.67-.77 3.01-.98 13.43-.98h12.66v1.95zm103.04 7.98c0 1.3-.4 1.3-48.2 1.3-31.58 0-48.36-.19-48.6-.67-.19-.4-.19-.98 0-1.3.21-.45 17.03-.67 48.6-.67 47.8.04 48.2.04 48.2 1.34zm-129.27-3.67c1.04.72 3.86.98 12.34.98 10.19 0 13.65.45 12.4 1.62-.27.32-11.81.67-25.72.77-27 .32-26.23.4-26.31-3.01v-1.49l12.98.08c10.19.06 13.28.33 14.31 1.05zm23.31 6.78l-1.04 1.97-23.22-.13c-17.88-.13-23.3-.4-23.57-1.04-.19-.59 2.42-.77 11.63-.77 9.66 0 12-.19 12.8-.98.85-.77 3.19-.98 12.72-.98h11.73l-1.05 1.93zm-23.44 4.18c.98.72 3.72 1.04 9.98 1.12 5.61.13 8.49.45 8.35.85-.4 1.25-5.03 1.57-21.02 1.62-16.71.08-16.57.08-19.18-3.41-.85-1.04-.27-1.12 9.87-1.12 8.22.03 10.96.22 12 .94zm14.63 5.27c0 .19-1.57 1.12-3.41 1.97-3.14 1.44-4.31 1.62-11.94 1.57-5.75 0-9.12-.27-10.45-.9-1.84-.77-1.57-.85 4.31-.9 4.76-.08 6.52-.32 7.1-1.04.67-.77 2.34-.98 7.58-.98 3.73-.02 6.81.09 6.81.28zm29.16-18.31c-.53-.67-1.3-2.87-1.7-5.03-.45-2.15-.9-4.5-1.04-5.21-.21-1.04-.8-1.36-2.82-1.36-1.36 0-2.87.13-3.27.27-1.09.32-.98 2.08.19 2.08.53 0 .98.19.98.4 0 1.04-5.03 8.75-5.67 8.75-.93 0-1.17 1.89-.35 2.02 1.84.32 3.86.4 4.5.13.98-.4 1.12-2.15.19-2.15-.32 0-.67-.32-.67-.67 0-.4 1.3-.67 2.93-.67s2.95.27 2.95.67c0 .32-.45.67-.98.67-1.36 0-1.25 1.76.19 2.21 1.17.4 3.59.08 4.76-.59.53-.35.39-.8-.19-1.52zm-7.45-3.4l2.05-3.94 1.46 3.94h-3.51zm93.99 2.82c-.53-.19-.32-2.08.59-6.25l1.3-5.99h-1.89c-1.97 0-3.51 1.97-2.02 2.47.45.13.77.64.77 1.17 0 .72-.59.85-2.42.59-2.87-.45-5.03.53-6.92 3.06-1.7 2.29-1.62 5.03.19 6.52 1.44 1.17 6.78 1.49 9.98.72 1.27-.35 1.53-1.92.42-2.29zm-4.53-.32c-1.44.74-3.8-.8-3.8-2.21 0-1.52 2.85-3.03 4.1-2.21 1.14.8 1.14 3.65-.3 4.42z"/></svg>