<?xml version="1.0" encoding="utf-8"?><svg width="244" height="176" viewBox="0 0 244 176" xmlns="http://www.w3.org/2000/svg" xmlns:xlink="http://www.w3.org/1999/xlink"><svg version="1.1" id="aski-logo" x="64" y="64" viewBox="-448.8 271.9 60.1 18.1" xml:space="preserve" width="60.1" height="18.1" xmlns="http://www.w3.org/2000/svg"><style>.ast0{fill:#fff}</style><path class="ast0" d="M-4348.5-1472.5c5.6-2 12.8-5.2 15.7-7.4 4.7-3.4 0-3.7-53.5-3.7-52 0-58.1.5-53.7 3.7 3.4 2.5 11.5 3.4 29.4 3.7 19.1 0 25.5 1 28 3.7 3.9 4.7 20.8 4.9 34.1 0zm-34.4-20.1c4.4-2.9 12.5-3.7 36.1-3.4 29 .5 40.2-1.7 40.2-7.1 0-1.5-30.2-2.5-79.7-2.2-43.9 0-79.7 1-79.7 2.2 0 1 3.2 4.7 7.4 8.1 6.9 5.9 8.8 6.1 38.5 6.1 24.3.2 32.6-.8 37.2-3.7zm216.4-34.2c2.7-3.4-1.5-15-5.6-15.7-2.2-.5-4.4 1.5-5.2 4.4-1 4.2-2.9 5.2-9.6 4.4-5.1-.5-8.3-2.2-8.8-4.9-.7-3.2 2-4.9 10.6-7.1 14.2-3.7 18.9-11 12.5-20.4-6.1-9.6-12.8-12-27.5-10.1-10.6 1.2-13.2 2.5-13.2 6.1 0 11.5 8.1 16.9 11 7.4 2-6.1 16.2-6.9 20.9-1.2 2.9 3.7.5 5.4-17.9 11.8-9.8 3.4-8.1 18.9 2.7 25 6.8 4 27.4 4.2 30.1.3zm55.7-.2c.5-.5 0-3.9-1.2-7.8-2.9-8.3-9.3-10.3-11.3-3.2-1.2 4.9-9.3 6.6-17.7 3.4-4.9-2-11-13.7-11-21.3 0-11.3 9.8-14 29-7.8 8.3 2.7 6.9-5.2-2-9.8-17.2-8.8-36.8-1-36.8 15.2 0 11.8 6.6 25 15.7 30.7 6.1 3.7 10.3 4.4 20.9 3.2 7.3-.9 13.9-1.9 14.4-2.6zm47.1-1.2c0-3.7-1.7-4.9-6.1-4.9-7.1 0-9.6-4.7-12.3-22.8-1.7-11.3-1.7-11.5 4.7-11.5 8.1 0 8.6-6.6 1-8.6-3.2-.7-11.8-1.2-19.1-.7-10.1.5-13.5 1.7-13.5 4.4 0 2.2 2.7 3.9 7.6 4.4 6.9.7 7.6 1.7 10.3 15 3.9 19.1 3.9 19.9-3.2 19.9-3.7 0-6.1 1.5-6.1 3.4 0 4.9 3.9 5.9 21.6 6.1 13.7.1 15.1-.3 15.1-4.7zm72.8-.6c.7-3.2-.7-4.4-5.2-4.4-5.4 0-6.6-1.5-8.8-12.3-4.4-20.4-3.9-22.6 5.1-21.6 6.1.5 8.3 2.2 9.3 6.9.7 3.4 3.4 6.4 5.9 6.9 4.2 1 4.4-.3 2.9-9.6-1-5.6-2.2-11.3-2.9-12.5-.7-1-11-2-23.3-2-19.9 0-21.8.5-21.8 4.7 0 3.2 2 5.2 5.4 5.6 4.4.5 5.9 3.2 8.6 15.5 3.9 19.1 3.9 18.4-1.7 18.4s-6.4 2.5-2 6.9c2 2 8.1 2.9 15.5 2.5 9.3-.5 12.5-1.8 13-5zm30.2-2.9c-.7-5.9 0-6.4 9.3-6.4 6.6 0 9.8-1 9.8-3.4 0-3.4-7.1-6.4-16.2-6.4-5.4 0-8.3-5.6-8.3-15.7 0-4.2 1.2-4.4 12.3-2.9 9.8 1.2 12.3 1 12.3-2 0-3.9-12.3-8.8-21.8-8.8-11.3 0-13.5 3.2-11.8 16.7 1 9.6.7 12.8-2.2 13.7-4.9 2-4.2 8.8 1 8.8 2.7 0 5.4 2.9 7.1 7.6 3.3 9.1 9.5 8.4 8.5-1.2zm-334.8 13.8l3.9-7.4h-94.5c-82.9 0-94.5.5-93.2 3.7 1.3 3.2 8.8 3.7 47.6 3.7 37.8 0 46.6.7 49.1 3.7 2.5 2.9 10.6 3.7 43.2 3.7h40l3.9-7.4zm-87.4-16.4c4.2-2.7 15-3.7 49.8-3.9 40.5-.5 44.9-1 45.6-4.7.7-4.2-5.6-4.4-98.6-4.4h-99.6v6.9c0 3.9.7 7.6 1.5 8.6.7.7 22.8 1.2 48.8 1.2 37.8 0 48.4-.8 52.5-3.7zm98.4-25.3v-7.4h-101.8c-88.8 0-101.8.5-101.8 3.7s7.4 3.7 51.3 3.7c42.4 0 51.8.7 54.2 3.7 2.5 2.9 11.3 3.7 50.5 3.7h47.6v-7.4zm387.3-30c0-4.9-1.5-4.9-181.2-4.9-118.7 0-181.8.7-182.7 2.5-.7 1.5-.7 3.7 0 4.9.8 1.7 64 2.5 182.7 2.5 179.7-.1 181.2-.1 181.2-5zm-485.9 13.8c3.9-2.7 14.5-3.7 46.4-3.7 38.3 0 51.3-1.7 46.6-6.1-1-1.2-44.4-2.5-96.7-2.9-101.5-1.2-98.6-1.5-98.9 11.3v5.6l48.8-.3c38.3-.2 49.9-1.2 53.8-3.9zm87.6-25.5l-3.9-7.4-87.3.5c-67.2.5-87.6 1.5-88.6 3.9-.7 2.2 9.1 2.9 43.7 2.9 36.3 0 45.1.7 48.1 3.7 3.2 2.9 12 3.7 47.8 3.7h44.1l-3.9-7.3zm-88.1-15.7c3.7-2.7 14-3.9 37.5-4.2 21.1-.5 31.9-1.7 31.4-3.2-1.5-4.7-18.9-5.9-79-6.1-62.8-.3-62.3-.3-72.1 12.8-3.2 3.9-1 4.2 37.1 4.2 30.9-.1 41.2-.8 45.1-3.5zm55-19.8c0-.7-5.9-4.2-12.8-7.4-11.8-5.4-16.2-6.1-44.9-5.9-21.6 0-34.3 1-39.3 3.4-6.9 2.9-5.9 3.2 16.2 3.4 17.9.3 24.5 1.2 26.7 3.9 2.5 2.9 8.8 3.7 28.5 3.7 14 0 25.6-.4 25.6-1.1zm109.6 68.8c-2 2.5-4.9 10.8-6.4 18.9-1.7 8.1-3.4 16.9-3.9 19.6-.8 3.9-3 5.1-10.6 5.1-5.1 0-10.8-.5-12.3-1-4.1-1.2-3.7-7.8.7-7.8 2 0 3.7-.7 3.7-1.5 0-3.9-18.9-32.9-21.3-32.9-3.5 0-4.4-7.1-1.3-7.6 6.9-1.2 14.5-1.5 16.9-.5 3.7 1.5 4.2 8.1.7 8.1-1.2 0-2.5 1.2-2.5 2.5 0 1.5 4.9 2.5 11 2.5s11.1-1 11.1-2.5c0-1.2-1.7-2.5-3.7-2.5-5.1 0-4.7-6.6.7-8.3 4.4-1.5 13.5-.3 17.9 2.2 2 1.3 1.5 3-.7 5.7zm-28 12.8l7.7 14.8 5.5-14.8h-13.2zm353.3-10.6c-2 .7-1.2 7.8 2.2 23.5l4.9 22.5h-7.1c-7.4 0-13.2-7.4-7.6-9.3 1.7-.5 2.9-2.4 2.9-4.4 0-2.7-2.2-3.2-9.1-2.2-10.8 1.7-18.9-2-26-11.5-6.4-8.6-6.1-18.9.7-24.5 5.4-4.4 25.5-5.6 37.5-2.7 4.8 1.3 5.8 7.2 1.6 8.6zm-17 1.2c-5.4-2.8-14.3 3-14.3 8.3 0 5.7 10.7 11.4 15.4 8.3 4.3-3 4.3-13.7-1.1-16.6z" transform="matrix(.1 0 0 -.1 0 125)"/></svg><svg viewBox="-448.8 271.9 60.1 18.1" width="60.1" height="18.1" id="aski-logo-black" x="64" y="82.1" xmlns="http://www.w3.org/2000/svg"><path d="M-434.85 272.25c.56.2 1.28.52 1.57.74.47.34 0 .37-5.35.37-5.2 0-5.81-.05-5.37-.37.34-.25 1.15-.34 2.94-.37 1.91 0 2.55-.1 2.8-.37.39-.47 2.08-.49 3.41 0zm-3.44 2.01c.44.29 1.25.37 3.61.34 2.9-.05 4.02.17 4.02.71 0 .15-3.02.25-7.97.22-4.39 0-7.97-.1-7.97-.22 0-.1.32-.47.74-.81.69-.59.88-.61 3.85-.61 2.43-.02 3.26.08 3.72.37zm21.64 3.42c.27.34-.15 1.5-.56 1.57-.22.05-.44-.15-.52-.44-.1-.42-.29-.52-.96-.44-.51.05-.83.22-.88.49-.07.32.2.49 1.06.71 1.42.37 1.89 1.1 1.25 2.04-.61.96-1.28 1.2-2.75 1.01-1.06-.12-1.32-.25-1.32-.61 0-1.15.81-1.69 1.1-.74.2.61 1.62.69 2.09.12.29-.37.05-.54-1.79-1.18-.98-.34-.81-1.89.27-2.5.68-.4 2.74-.42 3.01-.03zm5.57.02c.05.05 0 .39-.12.78-.29.83-.93 1.03-1.13.32-.12-.49-.93-.66-1.77-.34-.49.2-1.1 1.37-1.1 2.13 0 1.13.98 1.4 2.9.78.83-.27.69.52-.2.98-1.72.88-3.68.1-3.68-1.52 0-1.18.66-2.5 1.57-3.07.61-.37 1.03-.44 2.09-.32.73.09 1.39.19 1.44.26zm4.71.12c0 .37-.17.49-.61.49-.71 0-.96.47-1.23 2.28-.17 1.13-.17 1.15.47 1.15.81 0 .86.66.1.86-.32.07-1.18.12-1.91.07-1.01-.05-1.35-.17-1.35-.44 0-.22.27-.39.76-.44.69-.07.76-.17 1.03-1.5.39-1.91.39-1.99-.32-1.99-.37 0-.61-.15-.61-.34 0-.49.39-.59 2.16-.61 1.37-.01 1.51.03 1.51.47zm7.28.06c.07.32-.07.44-.52.44-.54 0-.66.15-.88 1.23-.44 2.04-.39 2.26.51 2.16.61-.05.83-.22.93-.69.07-.34.34-.64.59-.69.42-.1.44.03.29.96-.1.56-.22 1.13-.29 1.25-.07.1-1.1.2-2.33.2-1.99 0-2.18-.05-2.18-.47 0-.32.2-.52.54-.56.44-.05.59-.32.86-1.55.39-1.91.39-1.84-.17-1.84s-.64-.25-.2-.69c.2-.2.81-.29 1.55-.25.93.05 1.25.18 1.3.5zm3.02.29c-.07.59 0 .64.93.64.66 0 .98.1.98.34 0 .34-.71.64-1.62.64-.54 0-.83.56-.83 1.57 0 .42.12.44 1.23.29.98-.12 1.23-.1 1.23.2 0 .39-1.23.88-2.18.88-1.13 0-1.35-.32-1.18-1.67.1-.96.07-1.28-.22-1.37-.49-.2-.42-.88.1-.88.27 0 .54-.29.71-.76.33-.91.95-.84.85.12zm-33.48-1.38l.39.74h-9.45c-8.29 0-9.45-.05-9.32-.37.13-.32.88-.37 4.76-.37 3.78 0 4.66-.07 4.91-.37.25-.29 1.06-.37 4.32-.37h4l.39.74zm-8.74 1.64c.42.27 1.5.37 4.98.39 4.05.05 4.49.1 4.56.47.07.42-.56.44-9.86.44h-9.96v-.69c0-.39.07-.76.15-.86.07-.07 2.28-.12 4.88-.12 3.78 0 4.84.08 5.25.37zm9.84 2.53v.74h-10.18c-8.88 0-10.18-.05-10.18-.37s.74-.37 5.13-.37c4.24 0 5.18-.07 5.42-.37.25-.29 1.13-.37 5.05-.37h4.76v.74zm38.73 3c0 .49-.15.49-18.12.49-11.87 0-18.18-.07-18.27-.25-.07-.15-.07-.37 0-.49.08-.17 6.4-.25 18.27-.25 17.97.01 18.12.01 18.12.5zm-48.59-1.38c.39.27 1.45.37 4.64.37 3.83 0 5.13.17 4.66.61-.1.12-4.44.25-9.67.29-10.15.12-9.86.15-9.89-1.13v-.56l4.88.03c3.83.02 4.99.12 5.38.39zm8.76 2.55l-.39.74-8.73-.05c-6.72-.05-8.76-.15-8.86-.39-.07-.22.91-.29 4.37-.29 3.63 0 4.51-.07 4.81-.37.32-.29 1.2-.37 4.78-.37h4.41l-.39.73zm-8.81 1.57c.37.27 1.4.39 3.75.42 2.11.05 3.19.17 3.14.32-.15.47-1.89.59-7.9.61-6.28.03-6.23.03-7.21-1.28-.32-.39-.1-.42 3.71-.42 3.09.01 4.12.08 4.51.35zm5.5 1.98c0 .07-.59.42-1.28.74-1.18.54-1.62.61-4.49.59-2.16 0-3.43-.1-3.93-.34-.69-.29-.59-.32 1.62-.34 1.79-.03 2.45-.12 2.67-.39.25-.29.88-.37 2.85-.37 1.4 0 2.56.04 2.56.11zm10.96-6.88c-.2-.25-.49-1.08-.64-1.89-.17-.81-.34-1.69-.39-1.96-.08-.39-.3-.51-1.06-.51-.51 0-1.08.05-1.23.1-.41.12-.37.78.07.78.2 0 .37.07.37.15 0 .39-1.89 3.29-2.13 3.29-.35 0-.44.71-.13.76.69.12 1.45.15 1.69.05.37-.15.42-.81.07-.81-.12 0-.25-.12-.25-.25 0-.15.49-.25 1.1-.25s1.11.1 1.11.25c0 .12-.17.25-.37.25-.51 0-.47.66.07.83.44.15 1.35.03 1.79-.22.2-.13.15-.3-.07-.57zm-2.8-1.28l.77-1.48.55 1.48h-1.32zm35.33 1.06c-.2-.07-.12-.78.22-2.35l.49-2.25h-.71c-.74 0-1.32.74-.76.93.17.05.29.24.29.44 0 .27-.22.32-.91.22-1.08-.17-1.89.2-2.6 1.15-.64.86-.61 1.89.07 2.45.54.44 2.55.56 3.75.27.48-.13.58-.72.16-.86zm-1.7-.12c-.54.28-1.43-.3-1.43-.83 0-.57 1.07-1.14 1.54-.83.43.3.43 1.37-.11 1.66z"/></svg><svg id="comment" data-name="Layer 1" width="64" height="64" viewBox="0 0 64 64" xmlns="http://www.w3.org/2000/svg"><defs><style>.ccls-1{fill:#2f5572}</style></defs><path class="ccls-1" d="M.72.08A.67.67 0 0 0 0 .8v46.48a.72.72 0 0 0 .72.72H48l16 16V.72a.67.67 0 0 0-.72-.72H.8z"/></svg><svg id="facebook" data-name="Layer 1" width="21.23" height="42.01" viewBox="0 0 21.23 42.01" x="184" y="106.06" xmlns="http://www.w3.org/2000/svg"><defs><style>.dcls-1{fill:#fff}</style></defs><path class="dcls-1" d="M21.23.31V7H17.4a3.55 3.55 0 0 0-2.85.91 4.26 4.26 0 0 0-.74 2.72v4.77H21l-1 7.47h-6.19V42H6.27V22.85H0v-7.47h6.27V9.85q0-4.69 2.55-7.28A9 9 0 0 1 15.63 0a39.57 39.57 0 0 1 5.6.31z"/></svg><svg id="fire" data-name="Layer 1" width="56" height="64" viewBox="0 0 56 64" x="64" xmlns="http://www.w3.org/2000/svg"><defs><style>.ecls-1{fill:#d4953d}</style></defs><path class="ecls-1" d="M16 0C24 16 0 24 0 40s16 24 16 24C8.16 48.16 32 40 32 24S16 0 16 0zm24 24c8 16-16 24-16 40h24c3.2 0 8-4 8-16 0-16-16-24-16-24z"/></svg><svg id="globe" data-name="Layer 1" width="64" height="64" viewBox="0 0 64 64" x="120" xmlns="http://www.w3.org/2000/svg"><defs><style>.fcls-1{fill:#d4953f}</style></defs><path class="fcls-1" d="M32 0a32 32 0 1 0 32 32A32 32 0 0 0 32 0zm0 8a23.75 23.75 0 0 1 7.52 1.52c-1.68 1.6-3.6 3-3.28 4.48s5.52 1 5.52 4c0 2.16-3.36 2.8-1 5.28 2.8 2.8-5.12 7.84-5.28 11.52-.24 6.64 6.72 7.76 12.24 7.76 3.36 0 4.24 1.6 4 3.52a24.07 24.07 0 0 1-19.76 10 22.94 22.94 0 0 1-8.48-1.76c1.76-3.52-2.24-10.48-6-12.72-1.84-1.84-5.76-1.12-8-2a23.49 23.49 0 0 1-1.52-6.72 1.42 1.42 0 0 1 1.28-.72c1.52 0 3.6 3 4.72 2.72 1.4-.32-5.96-10.48-2.52-12.48 1.6-1 4.8 3.12 3.76-1.28-1-4.08 2.88-2.24 5.28-3.28 2.08-.88 3.6-3.28 1-4.72a8.55 8.55 0 0 1-1.76-1.52A23.75 23.75 0 0 1 32 8.08V8zm18.48 8.72A26.46 26.46 0 0 1 54 22.48v.24a11.78 11.78 0 0 1-1.76 1.76C50 26.72 49.68 22.8 48.72 22c-1-1-4.8.16-5.28-1-.56-1.48 4-3.4 7.04-4.28z"/></svg><svg id="instagram" data-name="Layer 1" width="42.01" height="42.01" viewBox="0 0 42.01 42.01" x="128" y="112" xmlns="http://www.w3.org/2000/svg"><defs><style>.gcls-1{fill:#fff}</style></defs><path class="gcls-1" d="M37.25 35.49V17.77h-3.69a11.77 11.77 0 0 1 .57 3.58 12.12 12.12 0 0 1-1.75 6.36 12.76 12.76 0 0 1-4.76 4.59 13.13 13.13 0 0 1-6.56 1.7 12.78 12.78 0 0 1-9.19-3.71 12 12 0 0 1-3.83-9 11.77 11.77 0 0 1 .49-3.56H4.68v17.76a1.63 1.63 0 0 0 1.6 1.67h29.3a1.63 1.63 0 0 0 1.17-.47 1.59 1.59 0 0 0 .5-1.2zm-7.77-14.57A7.75 7.75 0 0 0 27 15.14a8.28 8.28 0 0 0-6-2.4 8.25 8.25 0 0 0-5.91 2.39 7.75 7.75 0 0 0-2.47 5.78 7.75 7.75 0 0 0 2.47 5.79A8.25 8.25 0 0 0 21 29.1a8.28 8.28 0 0 0 6-2.4 7.75 7.75 0 0 0 2.48-5.78zm7.76-9.84V6.56a1.84 1.84 0 0 0-.54-1.31 1.8 1.8 0 0 0-1.31-.56h-4.78a1.8 1.8 0 0 0-1.31.56 1.84 1.84 0 0 0-.54 1.31v4.52A1.87 1.87 0 0 0 30.6 13h4.8a1.87 1.87 0 0 0 1.85-1.89zM42 5.39v31.23A5.41 5.41 0 0 1 36.62 42H5.39a5.19 5.19 0 0 1-3.8-1.59A5.19 5.19 0 0 1 0 36.62V5.39a5.19 5.19 0 0 1 1.59-3.8A5.19 5.19 0 0 1 5.39 0h31.23a5.19 5.19 0 0 1 3.8 1.59A5.19 5.19 0 0 1 42 5.39z"/></svg><svg id="mail" data-name="Layer 1" width="64" height="48" viewBox="0 0 64 48" y="64" xmlns="http://www.w3.org/2000/svg"><defs><style>.hcls-1{fill:#2f5572}</style></defs><path class="hcls-1" d="M0 0v8l32 16L64 8V0H0zm0 16v32h64V16L32 32z"/></svg><svg id="rain" data-name="Layer 1" width="64" height="64" viewBox="0 0 64 64" y="112" xmlns="http://www.w3.org/2000/svg"><defs><style>.icls-1{fill:#d4953f}</style></defs><path class="icls-1" d="M36 0a20.42 20.42 0 0 0-20 16A16 16 0 0 0 0 32a15.4 15.4 0 0 0 4.27 10.72A11.88 11.88 0 0 1 12 40a10.51 10.51 0 0 1 4.47 1A12 12 0 0 1 28 32a12.06 12.06 0 0 1 11.51 9A11.84 11.84 0 0 1 44 40a11.94 11.94 0 0 1 11 7.52A12.07 12.07 0 0 0 64 36c0-5.2-3.36-10.32-8-12v-4A20 20 0 0 0 36 0zm-9.27 40A4 4 0 0 0 24 44v16a4 4 0 1 0 8 0V44a4 4 0 0 0-4.71-4h-.56zm-16 8A4 4 0 0 0 8 52v8a4 4 0 1 0 8 0v-8a4 4 0 0 0-4.71-4h-.54zm32 0A4 4 0 0 0 40 52v8a4 4 0 1 0 8 0v-8a4 4 0 0 0-4.71-4h-.58z" transform="translate(-.04)"/></svg><svg id="star" data-name="Layer 1" width="64" height="64" viewBox="0 0 64 64" x="64" y="112" xmlns="http://www.w3.org/2000/svg"><defs><style>.jcls-1{fill:#d4953f}</style></defs><path class="jcls-1" d="M32 0l-8 24H0l20 16-8 24 20-16 20 16-8-24 20-16H40z"/></svg><svg id="twitter" data-name="Layer 1" width="51.78" height="42.06" viewBox="0 0 51.78 42.06" x="184" y="64" xmlns="http://www.w3.org/2000/svg"><defs><style>.kcls-1{fill:#fff}</style></defs><path class="kcls-1" d="M51.78 5a22.23 22.23 0 0 1-5.32 5.52v1.38a30.15 30.15 0 0 1-1.25 8.53 30.81 30.81 0 0 1-3.76 8.13 32.1 32.1 0 0 1-6.06 6.92 27 27 0 0 1-8.48 4.8 31 31 0 0 1-10.62 1.8A29.47 29.47 0 0 1 0 37.29a22.71 22.71 0 0 0 2.56.13 20.78 20.78 0 0 0 13.17-4.53 10.63 10.63 0 0 1-9.92-7.36 13.45 13.45 0 0 0 2 .16 11 11 0 0 0 2.79-.36 10.44 10.44 0 0 1-6.09-3.67 10.25 10.25 0 0 1-2.41-6.75v-.13a10.52 10.52 0 0 0 4.8 1.34 10.6 10.6 0 0 1-3.45-3.78 10.34 10.34 0 0 1-1.28-5.07 10.4 10.4 0 0 1 1.45-5.33 30.08 30.08 0 0 0 9.71 7.83A29.57 29.57 0 0 0 25.53 13a11.79 11.79 0 0 1-.26-2.43 10.23 10.23 0 0 1 3-7.48 10.64 10.64 0 0 1 15 0l.21.22A20.81 20.81 0 0 0 50.33.8a10.3 10.3 0 0 1-4.67 5.85A21.14 21.14 0 0 0 51.78 5z"/></svg><svg id="wifi" data-name="Layer 1" width="60" height="64" viewBox="0 0 60 64" x="184" xmlns="http://www.w3.org/2000/svg"><defs><style>.lcls-1{fill:#d4953e}</style></defs><path class="lcls-1" d="M29.88 0A55.39 55.39 0 0 0 0 8.72l4.22 6.48a47.32 47.32 0 0 1 25.66-7.28 47.31 47.31 0 0 1 25.9 7.28L60 8.72A55.53 55.53 0 0 0 29.88 0zm0 24a31.08 31.08 0 0 0-17 5l4.22 6.72A23.09 23.09 0 0 1 29.8 32a24.17 24.17 0 0 1 13 3.76L47 29a32.37 32.37 0 0 0-17.2-5h.07zm0 24a8 8 0 1 0 8 8 8 8 0 0 0-8-8z"/></svg><svg id="youtube" data-name="Layer 1" width="34.75" height="42" viewBox="0 0 34.75 42" x="205.23" y="106.06" xmlns="http://www.w3.org/2000/svg"><defs><style>.mcls-1{fill:#fff}</style></defs><path class="mcls-1" d="M22.13 29.15v5q0 1.57-.91 1.57a1.5 1.5 0 0 1-1.06-.52v-7.11a1.5 1.5 0 0 1 1.06-.54q.91 0 .91 1.6zm7.92 0v1.08h-2.1v-1.06q0-1.59 1.06-1.59t1 1.59zM7.42 24h2.5v-2.14h-7.3v2.2h2.46V37.4h2.34V24zm6.75 13.4h2.09V25.82h-2.09v8.86a1.86 1.86 0 0 1-1.31 1 .48.48 0 0 1-.49-.47 6.52 6.52 0 0 1 0-.82v-8.57h-2.14V35a5.79 5.79 0 0 0 .19 1.71 1.26 1.26 0 0 0 1.36.87 3.43 3.43 0 0 0 2.39-1.43v1.25zm10.05-3.47v-4.6A8.33 8.33 0 0 0 24 27a1.63 1.63 0 0 0-1.67-1.31A2.82 2.82 0 0 0 20.16 27v-5.1h-2.08v15.5h2.09v-1.13a2.91 2.91 0 0 0 2.18 1.31A1.62 1.62 0 0 0 24 36.27a8.61 8.61 0 0 0 .22-2.35zm7.92-.24v-.3H30a11.6 11.6 0 0 1 0 1.43.9.9 0 0 1-.94.85q-1.08 0-1.08-1.61V32h4.19v-2.41a4.65 4.65 0 0 0-.66-2.72 3.2 3.2 0 0 0-5 0 4.52 4.52 0 0 0-.66 2.72v4.05a4.4 4.4 0 0 0 .66 2.72 3 3 0 0 0 2.49 1.2 2.9 2.9 0 0 0 3-2.51 10.31 10.31 0 0 0 .09-1.36zM17.89 12.3V7.38q0-1.61-1-1.61t-1 1.61v4.92q0 1.64 1 1.64t1-1.64zm16.85 17.6a40.6 40.6 0 0 1-.61 8.2 4.45 4.45 0 0 1-1.36 2.32 4.1 4.1 0 0 1-2.39 1.08 125.31 125.31 0 0 1-13 .49 125.31 125.31 0 0 1-13-.49A4.15 4.15 0 0 1 2 40.42 4.28 4.28 0 0 1 .63 38.1 39.76 39.76 0 0 1 0 29.9a40.6 40.6 0 0 1 .61-8.2A4.45 4.45 0 0 1 2 19.37a4.25 4.25 0 0 1 2.41-1.1q4.29-.47 13-.47t13 .47a4.4 4.4 0 0 1 3.75 3.42 39.76 39.76 0 0 1 .58 8.21zM11.35 0h2.39l-2.83 9.35v6.35H8.57V9.35a39.68 39.68 0 0 0-1.43-5Q6.27 2 5.61 0H8.1l1.67 6.16zM20 7.8v4.1a4.59 4.59 0 0 1-.66 2.76 2.88 2.88 0 0 1-2.49 1.19 2.9 2.9 0 0 1-2.46-1.19 4.68 4.68 0 0 1-.66-2.76V7.8a4.59 4.59 0 0 1 .66-2.74 2.9 2.9 0 0 1 2.46-1.19 2.88 2.88 0 0 1 2.49 1.19A4.59 4.59 0 0 1 20 7.8zM27.87 4v11.7h-2.13v-1.27a3.37 3.37 0 0 1-2.41 1.45A1.31 1.31 0 0 1 22 15a6 6 0 0 1-.19-1.76V4h2.13v8.6a6.14 6.14 0 0 0 0 .82.49.49 0 0 0 .47.52 1.87 1.87 0 0 0 1.31-1V4h2.16z"/></svg></svg>