<?xml version="1.0" encoding="utf-8"?><svg width="288" height="225" viewBox="0 0 288 225" xmlns="http://www.w3.org/2000/svg" xmlns:xlink="http://www.w3.org/1999/xlink"><svg version="1.1" id="aski-logo" viewBox="-449 271.9 160 48.2" xml:space="preserve" width="160" height="48.2" xmlns="http://www.w3.org/2000/svg"><style>.ast0{fill:#fff}</style><path class="ast0" d="M-4118.6-1478.6c14.9-5.3 34.1-13.8 41.8-19.7 12.5-9 0-9.8-142.3-9.8-138.3 0-154.6 1.3-142.9 9.8 9 6.7 30.6 9 78.2 9.8 50.8 0 67.8 2.7 74.5 9.8 10.3 12.6 55.3 13.2 90.7.1zm-91.5-53.4c11.7-7.7 33.3-9.8 96-9 77.1 1.3 106.9-4.5 106.9-18.9 0-4-80.3-6.7-212-5.9-116.8 0-212 2.7-212 5.9 0 2.7 8.5 12.5 19.7 21.5 18.4 15.7 23.4 16.2 102.4 16.2 64.6.5 86.7-2.1 99-9.8zm575.6-91c7.2-9-4-39.9-14.9-41.8-5.9-1.3-11.7 4-13.8 11.7-2.7 11.2-7.7 13.8-25.5 11.7-13.6-1.3-22.1-5.9-23.4-13-1.9-8.5 5.3-13 28.2-18.9 37.8-9.8 50.3-29.3 33.3-54.3-16.2-25.5-34.1-31.9-73.2-26.9-28.2 3.2-35.1 6.7-35.1 16.2 0 30.6 21.5 45 29.3 19.7 5.3-16.2 43.1-18.4 55.6-3.2 7.7 9.8 1.3 14.4-47.6 31.4-26.1 9-21.5 50.3 7.2 66.5 18 10.7 72.8 11.2 79.9.9zm148.2-.6c1.3-1.3 0-10.4-3.2-20.8-7.7-22.1-24.7-27.4-30.1-8.5-3.2 13-24.7 17.6-47.1 9-13-5.3-29.3-36.4-29.3-56.7 0-30.1 26.1-37.2 77.1-20.8 22.1 7.2 18.4-13.8-5.3-26.1-45.8-23.4-97.9-2.7-97.9 40.4 0 31.4 17.6 66.5 41.8 81.7 16.2 9.8 27.4 11.7 55.6 8.5 19.5-2.1 37.1-4.8 38.4-6.7zm125.3-3.2c0-9.8-4.5-13-16.2-13-18.9 0-25.5-12.5-32.7-60.7-4.5-30.1-4.5-30.6 12.5-30.6 21.5 0 22.9-17.6 2.7-22.9-8.5-1.9-31.4-3.2-50.8-1.9-26.9 1.3-35.9 4.5-35.9 11.7 0 5.9 7.2 10.4 20.2 11.7 18.4 1.9 20.2 4.5 27.4 39.9 10.4 50.8 10.4 52.9-8.5 52.9-9.8 0-16.2 4-16.2 9 0 13 10.4 15.7 57.5 16.2 36.3.5 40-.6 40-12.3zm193.7-1.6c1.9-8.5-1.9-11.7-13.8-11.7-14.4 0-17.6-4-23.4-32.7-11.7-54.3-10.4-60.1 13.6-57.5 16.2 1.3 22.1 5.9 24.7 18.4 1.9 9 9 17 15.7 18.4 11.2 2.7 11.7-.8 7.7-25.5-2.7-14.9-5.9-30.1-7.7-33.3-1.9-2.7-29.3-5.3-62-5.3-52.9 0-58 1.3-58 12.5 0 8.5 5.3 13.8 14.4 14.9 11.7 1.3 15.7 8.5 22.9 41.2 10.4 50.8 10.4 48.9-4.5 48.9s-17 6.7-5.3 18.4c5.3 5.3 21.5 7.7 41.2 6.7 24.6-1.4 33.2-4.8 34.5-13.4zm80.3-7.7c-1.9-15.7 0-17 24.7-17 17.6 0 26.1-2.7 26.1-9 0-9-18.9-17-43.1-17-14.4 0-22.1-14.9-22.1-41.8 0-11.2 3.2-11.7 32.7-7.7 26.1 3.2 32.7 2.7 32.7-5.3 0-10.4-32.7-23.4-58-23.4-30.1 0-35.9 8.5-31.4 44.4 2.7 25.5 1.9 34.1-5.9 36.4-13 5.3-11.2 23.4 2.7 23.4 7.2 0 14.4 7.7 18.9 20.2 8.9 24.2 25.4 22.4 22.7-3.2zm-890.6 36.7l10.4-19.7h-251.4c-220.5 0-251.4 1.3-247.9 9.8s23.4 9.8 126.6 9.8c100.6 0 124 1.9 130.6 9.8 6.7 7.7 28.2 9.8 114.9 9.8h106.4l10.4-19.5zm-232.5-43.6c11.2-7.2 39.9-9.8 132.5-10.4 107.7-1.3 119.4-2.7 121.3-12.5 1.9-11.2-14.9-11.7-262.3-11.7h-265v18.4c0 10.4 1.9 20.2 4 22.9 1.9 1.9 60.7 3.2 129.8 3.2 100.6 0 128.8-2.2 139.7-9.9zm261.7-67.3v-19.7h-270.8c-236.2 0-270.8 1.3-270.8 9.8s19.7 9.8 136.5 9.8c112.8 0 137.8 1.9 144.2 9.8 6.7 7.7 30.1 9.8 134.3 9.8h126.6v-19.5zm1030.4-79.8c0-13-4-13-482-13-315.8 0-483.6 1.9-486 6.7-1.9 4-1.9 9.8 0 13 2.1 4.5 170.3 6.7 486 6.7 478-.4 482-.4 482-13.4zm-1292.7 36.7c10.4-7.2 38.6-9.8 123.4-9.8 101.9 0 136.5-4.5 124-16.2-2.7-3.2-118.1-6.7-257.2-7.7-270-3.2-262.3-4-263.1 30.1v14.9l129.8-.8c101.9-.6 132.8-3.3 143.1-10.5zm233.1-67.8l-10.4-19.7-232.2 1.3c-178.8 1.3-233 4-235.7 10.4-1.9 5.9 24.2 7.7 116.3 7.7 96.6 0 120 1.9 128 9.8 8.5 7.7 31.9 9.8 127.2 9.8h117.3l-10.5-19.3zM-4212-1863c9.8-7.2 37.2-10.4 99.8-11.2 56.1-1.3 84.9-4.5 83.5-8.5-4-12.5-50.3-15.7-210.2-16.2-167.1-.8-165.7-.8-191.8 34.1-8.5 10.4-2.7 11.2 98.7 11.2 82.2-.3 109.6-2.2 120-9.4zm146.3-52.7c0-1.9-15.7-11.2-34.1-19.7-31.4-14.4-43.1-16.2-119.4-15.7-57.5 0-91.2 2.7-104.5 9-18.4 7.7-15.7 8.5 43.1 9 47.6.8 65.2 3.2 71 10.4 6.7 7.7 23.4 9.8 75.8 9.8 37.3.2 68.1-.9 68.1-2.8zm291.6 183.1c-5.3 6.7-13 28.7-17 50.3-4.5 21.5-9 45-10.4 52.1-2.1 10.4-8 13.6-28.2 13.6-13.6 0-28.7-1.3-32.7-2.7-10.9-3.2-9.8-20.8 1.9-20.8 5.3 0 9.8-1.9 9.8-4 0-10.4-50.3-87.5-56.7-87.5-9.3 0-11.7-18.9-3.5-20.2 18.4-3.2 38.6-4 45-1.3 9.8 4 11.2 21.5 1.9 21.5-3.2 0-6.7 3.2-6.7 6.7 0 4 13 6.7 29.3 6.7s29.5-2.7 29.5-6.7c0-3.2-4.5-6.7-9.8-6.7-13.6 0-12.5-17.6 1.9-22.1 11.7-4 35.9-.8 47.6 5.9 5.3 3.5 3.9 8-1.9 15.2zm-74.5 34l20.5 39.4 14.6-39.4h-35.1zm939.9-28.2c-5.3 1.9-3.2 20.8 5.9 62.5l13 59.9h-18.9c-19.7 0-35.1-19.7-20.2-24.7 4.5-1.3 7.7-6.4 7.7-11.7 0-7.2-5.9-8.5-24.2-5.9-28.7 4.5-50.3-5.3-69.2-30.6-17-22.9-16.2-50.3 1.9-65.2 14.4-11.7 67.8-14.9 99.8-7.2 12.7 3.5 15.3 19.2 4.2 22.9zm-45.3 3.2c-14.4-7.4-38 8-38 22.1 0 15.2 28.5 30.3 41 22.1 11.4-8 11.4-36.5-3-44.2z" transform="matrix(.1 0 0 -.1 0 125)"/></svg><svg viewBox="-449 271.9 160 48.2" width="160" height="48.2" id="aski-logo-black" y="48.2" xmlns="http://www.w3.org/2000/svg"><path d="M-411.86 272.86c1.49.53 3.41 1.38 4.18 1.97 1.25.9 0 .98-14.23.98-13.83 0-15.46-.13-14.29-.98.9-.67 3.06-.9 7.82-.98 5.08 0 6.78-.27 7.45-.98 1.03-1.26 5.53-1.32 9.07-.01zm-9.15 5.34c1.17.77 3.33.98 9.6.9 7.71-.13 10.69.45 10.69 1.89 0 .4-8.03.67-21.2.59-11.68 0-21.2-.27-21.2-.59 0-.27.85-1.25 1.97-2.15 1.84-1.57 2.34-1.62 10.24-1.62 6.46-.05 8.67.21 9.9.98zm57.56 9.1c.72.9-.4 3.99-1.49 4.18-.59.13-1.17-.4-1.38-1.17-.27-1.12-.77-1.38-2.55-1.17-1.36.13-2.21.59-2.34 1.3-.19.85.53 1.3 2.82 1.89 3.78.98 5.03 2.93 3.33 5.43-1.62 2.55-3.41 3.19-7.32 2.69-2.82-.32-3.51-.67-3.51-1.62 0-3.06 2.15-4.5 2.93-1.97.53 1.62 4.31 1.84 5.56.32.77-.98.13-1.44-4.76-3.14-2.61-.9-2.15-5.03.72-6.65 1.8-1.07 7.28-1.12 7.99-.09zm14.82.06c.13.13 0 1.04-.32 2.08-.77 2.21-2.47 2.74-3.01.85-.32-1.3-2.47-1.76-4.71-.9-1.3.53-2.93 3.64-2.93 5.67 0 3.01 2.61 3.72 7.71 2.08 2.21-.72 1.84 1.38-.53 2.61-4.58 2.34-9.79.27-9.79-4.04 0-3.14 1.76-6.65 4.18-8.17 1.62-.98 2.74-1.17 5.56-.85 1.95.21 3.71.48 3.84.67zm12.53.32c0 .98-.45 1.3-1.62 1.3-1.89 0-2.55 1.25-3.27 6.07-.45 3.01-.45 3.06 1.25 3.06 2.15 0 2.29 1.76.27 2.29-.85.19-3.14.32-5.08.19-2.69-.13-3.59-.45-3.59-1.17 0-.59.72-1.04 2.02-1.17 1.84-.19 2.02-.45 2.74-3.99 1.04-5.08 1.04-5.29-.85-5.29-.98 0-1.62-.4-1.62-.9 0-1.3 1.04-1.57 5.75-1.62 3.63-.05 4 .06 4 1.23zm19.37.16c.19.85-.19 1.17-1.38 1.17-1.44 0-1.76.4-2.34 3.27-1.17 5.43-1.04 6.01 1.36 5.75 1.62-.13 2.21-.59 2.47-1.84.19-.9.9-1.7 1.57-1.84 1.12-.27 1.17.08.77 2.55-.27 1.49-.59 3.01-.77 3.33-.19.27-2.93.53-6.2.53-5.29 0-5.8-.13-5.8-1.25 0-.85.53-1.38 1.44-1.49 1.17-.13 1.57-.85 2.29-4.12 1.04-5.08 1.04-4.89-.45-4.89s-1.7-.67-.53-1.84c.53-.53 2.15-.77 4.12-.67 2.46.14 3.32.48 3.45 1.34zm8.03.77c-.19 1.57 0 1.7 2.47 1.7 1.76 0 2.61.27 2.61.9 0 .9-1.89 1.7-4.31 1.7-1.44 0-2.21 1.49-2.21 4.18 0 1.12.32 1.17 3.27.77 2.61-.32 3.27-.27 3.27.53 0 1.04-3.27 2.34-5.8 2.34-3.01 0-3.59-.85-3.14-4.44.27-2.55.19-3.41-.59-3.64-1.3-.53-1.12-2.34.27-2.34.72 0 1.44-.77 1.89-2.02.89-2.42 2.54-2.24 2.27.32zm-89.06-3.67l1.04 1.97h-25.14c-22.05 0-25.14-.13-24.79-.98.35-.85 2.34-.98 12.66-.98 10.06 0 12.4-.19 13.06-.98.67-.77 2.82-.98 11.49-.98h10.64l1.04 1.95zm-23.25 4.36c1.12.72 3.99.98 13.25 1.04 10.77.13 11.94.27 12.13 1.25.19 1.12-1.49 1.17-26.23 1.17h-26.5v-1.84c0-1.04.19-2.02.4-2.29.19-.19 6.07-.32 12.98-.32 10.06 0 12.88.22 13.97.99zm26.17 6.73V298h-27.08c-23.62 0-27.08-.13-27.08-.98s1.97-.98 13.65-.98c11.28 0 13.78-.19 14.42-.98.67-.77 3.01-.98 13.43-.98h12.66v1.95zm103.04 7.98c0 1.3-.4 1.3-48.2 1.3-31.58 0-48.36-.19-48.6-.67-.19-.4-.19-.98 0-1.3.21-.45 17.03-.67 48.6-.67 47.8.04 48.2.04 48.2 1.34zm-129.27-3.67c1.04.72 3.86.98 12.34.98 10.19 0 13.65.45 12.4 1.62-.27.32-11.81.67-25.72.77-27 .32-26.23.4-26.31-3.01v-1.49l12.98.08c10.19.06 13.28.33 14.31 1.05zm23.31 6.78l-1.04 1.97-23.22-.13c-17.88-.13-23.3-.4-23.57-1.04-.19-.59 2.42-.77 11.63-.77 9.66 0 12-.19 12.8-.98.85-.77 3.19-.98 12.72-.98h11.73l-1.05 1.93zm-23.44 4.18c.98.72 3.72 1.04 9.98 1.12 5.61.13 8.49.45 8.35.85-.4 1.25-5.03 1.57-21.02 1.62-16.71.08-16.57.08-19.18-3.41-.85-1.04-.27-1.12 9.87-1.12 8.22.03 10.96.22 12 .94zm14.63 5.27c0 .19-1.57 1.12-3.41 1.97-3.14 1.44-4.31 1.62-11.94 1.57-5.75 0-9.12-.27-10.45-.9-1.84-.77-1.57-.85 4.31-.9 4.76-.08 6.52-.32 7.1-1.04.67-.77 2.34-.98 7.58-.98 3.73-.02 6.81.09 6.81.28zm29.16-18.31c-.53-.67-1.3-2.87-1.7-5.03-.45-2.15-.9-4.5-1.04-5.21-.21-1.04-.8-1.36-2.82-1.36-1.36 0-2.87.13-3.27.27-1.09.32-.98 2.08.19 2.08.53 0 .98.19.98.4 0 1.04-5.03 8.75-5.67 8.75-.93 0-1.17 1.89-.35 2.02 1.84.32 3.86.4 4.5.13.98-.4 1.12-2.15.19-2.15-.32 0-.67-.32-.67-.67 0-.4 1.3-.67 2.93-.67s2.95.27 2.95.67c0 .32-.45.67-.98.67-1.36 0-1.25 1.76.19 2.21 1.17.4 3.59.08 4.76-.59.53-.35.39-.8-.19-1.52zm-7.45-3.4l2.05-3.94 1.46 3.94h-3.51zm93.99 2.82c-.53-.19-.32-2.08.59-6.25l1.3-5.99h-1.89c-1.97 0-3.51 1.97-2.02 2.47.45.13.77.64.77 1.17 0 .72-.59.85-2.42.59-2.87-.45-5.03.53-6.92 3.06-1.7 2.29-1.62 5.03.19 6.52 1.44 1.17 6.78 1.49 9.98.72 1.27-.35 1.53-1.92.42-2.29zm-4.53-.32c-1.44.74-3.8-.8-3.8-2.21 0-1.52 2.85-3.03 4.1-2.21 1.14.8 1.14 3.65-.3 4.42z"/></svg><svg id="comment" data-name="Layer 1" width="64" height="64" viewBox="0 0 64 64" x="160" xmlns="http://www.w3.org/2000/svg"><defs><style>.ccls-1{fill:#2f5572}</style></defs><path class="ccls-1" d="M.72.08A.67.67 0 0 0 0 .8v46.48a.72.72 0 0 0 .72.72H48l16 16V.72a.67.67 0 0 0-.72-.72H.8z"/></svg><svg id="facebook" data-name="Layer 1" width="21.23" height="42.01" viewBox="0 0 21.23 42.01" x="184" y="96.4" xmlns="http://www.w3.org/2000/svg"><defs><style>.dcls-1{fill:#fff}</style></defs><path class="dcls-1" d="M21.23.31V7H17.4a3.55 3.55 0 0 0-2.85.91 4.26 4.26 0 0 0-.74 2.72v4.77H21l-1 7.47h-6.19V42H6.27V22.85H0v-7.47h6.27V9.85q0-4.69 2.55-7.28A9 9 0 0 1 15.63 0a39.57 39.57 0 0 1 5.6.31z"/></svg><svg id="fire" data-name="Layer 1" width="56" height="64" viewBox="0 0 56 64" y="96.4" xmlns="http://www.w3.org/2000/svg"><defs><style>.ecls-1{fill:#d4953d}</style></defs><path class="ecls-1" d="M16 0C24 16 0 24 0 40s16 24 16 24C8.16 48.16 32 40 32 24S16 0 16 0zm24 24c8 16-16 24-16 40h24c3.2 0 8-4 8-16 0-16-16-24-16-24z"/></svg><svg id="globe" data-name="Layer 1" width="64" height="64" viewBox="0 0 64 64" x="56" y="96.4" xmlns="http://www.w3.org/2000/svg"><defs><style>.fcls-1{fill:#d4953f}</style></defs><path class="fcls-1" d="M32 0a32 32 0 1 0 32 32A32 32 0 0 0 32 0zm0 8a23.75 23.75 0 0 1 7.52 1.52c-1.68 1.6-3.6 3-3.28 4.48s5.52 1 5.52 4c0 2.16-3.36 2.8-1 5.28 2.8 2.8-5.12 7.84-5.28 11.52-.24 6.64 6.72 7.76 12.24 7.76 3.36 0 4.24 1.6 4 3.52a24.07 24.07 0 0 1-19.76 10 22.94 22.94 0 0 1-8.48-1.76c1.76-3.52-2.24-10.48-6-12.72-1.84-1.84-5.76-1.12-8-2a23.49 23.49 0 0 1-1.52-6.72 1.42 1.42 0 0 1 1.28-.72c1.52 0 3.6 3 4.72 2.72 1.4-.32-5.96-10.48-2.52-12.48 1.6-1 4.8 3.12 3.76-1.28-1-4.08 2.88-2.24 5.28-3.28 2.08-.88 3.6-3.28 1-4.72a8.55 8.55 0 0 1-1.76-1.52A23.75 23.75 0 0 1 32 8.08V8zm18.48 8.72A26.46 26.46 0 0 1 54 22.48v.24a11.78 11.78 0 0 1-1.76 1.76C50 26.72 49.68 22.8 48.72 22c-1-1-4.8.16-5.28-1-.56-1.48 4-3.4 7.04-4.28z"/></svg><svg id="instagram" data-name="Layer 1" width="42.01" height="42.01" viewBox="0 0 42.01 42.01" x="111.78" y="160.4" xmlns="http://www.w3.org/2000/svg"><defs><style>.gcls-1{fill:#fff}</style></defs><path class="gcls-1" d="M37.25 35.49V17.77h-3.69a11.77 11.77 0 0 1 .57 3.58 12.12 12.12 0 0 1-1.75 6.36 12.76 12.76 0 0 1-4.76 4.59 13.13 13.13 0 0 1-6.56 1.7 12.78 12.78 0 0 1-9.19-3.71 12 12 0 0 1-3.83-9 11.77 11.77 0 0 1 .49-3.56H4.68v17.76a1.63 1.63 0 0 0 1.6 1.67h29.3a1.63 1.63 0 0 0 1.17-.47 1.59 1.59 0 0 0 .5-1.2zm-7.77-14.57A7.75 7.75 0 0 0 27 15.14a8.28 8.28 0 0 0-6-2.4 8.25 8.25 0 0 0-5.91 2.39 7.75 7.75 0 0 0-2.47 5.78 7.75 7.75 0 0 0 2.47 5.79A8.25 8.25 0 0 0 21 29.1a8.28 8.28 0 0 0 6-2.4 7.75 7.75 0 0 0 2.48-5.78zm7.76-9.84V6.56a1.84 1.84 0 0 0-.54-1.31 1.8 1.8 0 0 0-1.31-.56h-4.78a1.8 1.8 0 0 0-1.31.56 1.84 1.84 0 0 0-.54 1.31v4.52A1.87 1.87 0 0 0 30.6 13h4.8a1.87 1.87 0 0 0 1.85-1.89zM42 5.39v31.23A5.41 5.41 0 0 1 36.62 42H5.39a5.19 5.19 0 0 1-3.8-1.59A5.19 5.19 0 0 1 0 36.62V5.39a5.19 5.19 0 0 1 1.59-3.8A5.19 5.19 0 0 1 5.39 0h31.23a5.19 5.19 0 0 1 3.8 1.59A5.19 5.19 0 0 1 42 5.39z"/></svg><svg id="mail" data-name="Layer 1" width="64" height="48" viewBox="0 0 64 48" x="120" y="96.4" xmlns="http://www.w3.org/2000/svg"><defs><style>.hcls-1{fill:#2f5572}</style></defs><path class="hcls-1" d="M0 0v8l32 16L64 8V0H0zm0 16v32h64V16L32 32z"/></svg><svg id="rain" data-name="Layer 1" width="64" height="64" viewBox="0 0 64 64" x="224" xmlns="http://www.w3.org/2000/svg"><defs><style>.icls-1{fill:#d4953f}</style></defs><path class="icls-1" d="M36 0a20.42 20.42 0 0 0-20 16A16 16 0 0 0 0 32a15.4 15.4 0 0 0 4.27 10.72A11.88 11.88 0 0 1 12 40a10.51 10.51 0 0 1 4.47 1A12 12 0 0 1 28 32a12.06 12.06 0 0 1 11.51 9A11.84 11.84 0 0 1 44 40a11.94 11.94 0 0 1 11 7.52A12.07 12.07 0 0 0 64 36c0-5.2-3.36-10.32-8-12v-4A20 20 0 0 0 36 0zm-9.27 40A4 4 0 0 0 24 44v16a4 4 0 1 0 8 0V44a4 4 0 0 0-4.71-4h-.56zm-16 8A4 4 0 0 0 8 52v8a4 4 0 1 0 8 0v-8a4 4 0 0 0-4.71-4h-.54zm32 0A4 4 0 0 0 40 52v8a4 4 0 1 0 8 0v-8a4 4 0 0 0-4.71-4h-.58z" transform="translate(-.04)"/></svg><svg id="star" data-name="Layer 1" width="64" height="64" viewBox="0 0 64 64" x="224" y="64" xmlns="http://www.w3.org/2000/svg"><defs><style>.jcls-1{fill:#d4953f}</style></defs><path class="jcls-1" d="M32 0l-8 24H0l20 16-8 24 20-16 20 16-8-24 20-16H40z"/></svg><svg id="twitter" data-name="Layer 1" width="51.78" height="42.06" viewBox="0 0 51.78 42.06" x="60" y="160.4" xmlns="http://www.w3.org/2000/svg"><defs><style>.kcls-1{fill:#fff}</style></defs><path class="kcls-1" d="M51.78 5a22.23 22.23 0 0 1-5.32 5.52v1.38a30.15 30.15 0 0 1-1.25 8.53 30.81 30.81 0 0 1-3.76 8.13 32.1 32.1 0 0 1-6.06 6.92 27 27 0 0 1-8.48 4.8 31 31 0 0 1-10.62 1.8A29.47 29.47 0 0 1 0 37.29a22.71 22.71 0 0 0 2.56.13 20.78 20.78 0 0 0 13.17-4.53 10.63 10.63 0 0 1-9.92-7.36 13.45 13.45 0 0 0 2 .16 11 11 0 0 0 2.79-.36 10.44 10.44 0 0 1-6.09-3.67 10.25 10.25 0 0 1-2.41-6.75v-.13a10.52 10.52 0 0 0 4.8 1.34 10.6 10.6 0 0 1-3.45-3.78 10.34 10.34 0 0 1-1.28-5.07 10.4 10.4 0 0 1 1.45-5.33 30.08 30.08 0 0 0 9.71 7.83A29.57 29.57 0 0 0 25.53 13a11.79 11.79 0 0 1-.26-2.43 10.23 10.23 0 0 1 3-7.48 10.64 10.64 0 0 1 15 0l.21.22A20.81 20.81 0 0 0 50.33.8a10.3 10.3 0 0 1-4.67 5.85A21.14 21.14 0 0 0 51.78 5z"/></svg><svg id="wifi" data-name="Layer 1" width="60" height="64" viewBox="0 0 60 64" y="160.4" xmlns="http://www.w3.org/2000/svg"><defs><style>.lcls-1{fill:#d4953e}</style></defs><path class="lcls-1" d="M29.88 0A55.39 55.39 0 0 0 0 8.72l4.22 6.48a47.32 47.32 0 0 1 25.66-7.28 47.31 47.31 0 0 1 25.9 7.28L60 8.72A55.53 55.53 0 0 0 29.88 0zm0 24a31.08 31.08 0 0 0-17 5l4.22 6.72A23.09 23.09 0 0 1 29.8 32a24.17 24.17 0 0 1 13 3.76L47 29a32.37 32.37 0 0 0-17.2-5h.07zm0 24a8 8 0 1 0 8 8 8 8 0 0 0-8-8z"/></svg><svg id="youtube" data-name="Layer 1" width="34.75" height="42" viewBox="0 0 34.75 42" x="153.79" y="160.4" xmlns="http://www.w3.org/2000/svg"><defs><style>.mcls-1{fill:#fff}</style></defs><path class="mcls-1" d="M22.13 29.15v5q0 1.57-.91 1.57a1.5 1.5 0 0 1-1.06-.52v-7.11a1.5 1.5 0 0 1 1.06-.54q.91 0 .91 1.6zm7.92 0v1.08h-2.1v-1.06q0-1.59 1.06-1.59t1 1.59zM7.42 24h2.5v-2.14h-7.3v2.2h2.46V37.4h2.34V24zm6.75 13.4h2.09V25.82h-2.09v8.86a1.86 1.86 0 0 1-1.31 1 .48.48 0 0 1-.49-.47 6.52 6.52 0 0 1 0-.82v-8.57h-2.14V35a5.79 5.79 0 0 0 .19 1.71 1.26 1.26 0 0 0 1.36.87 3.43 3.43 0 0 0 2.39-1.43v1.25zm10.05-3.47v-4.6A8.33 8.33 0 0 0 24 27a1.63 1.63 0 0 0-1.67-1.31A2.82 2.82 0 0 0 20.16 27v-5.1h-2.08v15.5h2.09v-1.13a2.91 2.91 0 0 0 2.18 1.31A1.62 1.62 0 0 0 24 36.27a8.61 8.61 0 0 0 .22-2.35zm7.92-.24v-.3H30a11.6 11.6 0 0 1 0 1.43.9.9 0 0 1-.94.85q-1.08 0-1.08-1.61V32h4.19v-2.41a4.65 4.65 0 0 0-.66-2.72 3.2 3.2 0 0 0-5 0 4.52 4.52 0 0 0-.66 2.72v4.05a4.4 4.4 0 0 0 .66 2.72 3 3 0 0 0 2.49 1.2 2.9 2.9 0 0 0 3-2.51 10.31 10.31 0 0 0 .09-1.36zM17.89 12.3V7.38q0-1.61-1-1.61t-1 1.61v4.92q0 1.64 1 1.64t1-1.64zm16.85 17.6a40.6 40.6 0 0 1-.61 8.2 4.45 4.45 0 0 1-1.36 2.32 4.1 4.1 0 0 1-2.39 1.08 125.31 125.31 0 0 1-13 .49 125.31 125.31 0 0 1-13-.49A4.15 4.15 0 0 1 2 40.42 4.28 4.28 0 0 1 .63 38.1 39.76 39.76 0 0 1 0 29.9a40.6 40.6 0 0 1 .61-8.2A4.45 4.45 0 0 1 2 19.37a4.25 4.25 0 0 1 2.41-1.1q4.29-.47 13-.47t13 .47a4.4 4.4 0 0 1 3.75 3.42 39.76 39.76 0 0 1 .58 8.21zM11.35 0h2.39l-2.83 9.35v6.35H8.57V9.35a39.68 39.68 0 0 0-1.43-5Q6.27 2 5.61 0H8.1l1.67 6.16zM20 7.8v4.1a4.59 4.59 0 0 1-.66 2.76 2.88 2.88 0 0 1-2.49 1.19 2.9 2.9 0 0 1-2.46-1.19 4.68 4.68 0 0 1-.66-2.76V7.8a4.59 4.59 0 0 1 .66-2.74 2.9 2.9 0 0 1 2.46-1.19 2.88 2.88 0 0 1 2.49 1.19A4.59 4.59 0 0 1 20 7.8zM27.87 4v11.7h-2.13v-1.27a3.37 3.37 0 0 1-2.41 1.45A1.31 1.31 0 0 1 22 15a6 6 0 0 1-.19-1.76V4h2.13v8.6a6.14 6.14 0 0 0 0 .82.49.49 0 0 0 .47.52 1.87 1.87 0 0 0 1.31-1V4h2.16z"/></svg></svg>