<?xml version="1.0" encoding="utf-8"?>
<!-- Generator: Adobe Illustrator 19.0.0, SVG Export Plug-In . SVG Version: 6.00 Build 0)  -->
<svg version="1.1" id="Layer_1" xmlns="http://www.w3.org/2000/svg" xmlns:xlink="http://www.w3.org/1999/xlink" x="0px" y="0px"
	 viewBox="-449 271.9 160 48.2" style="enable-background:new -449 271.9 160 48.2;" xml:space="preserve">
<g transform="translate(0.000000,125.000000) scale(0.100000,-0.100000)">
	<path d="M-4118.6-1478.6c14.9-5.3,34.1-13.8,41.8-19.7c12.5-9,0-9.8-142.3-9.8c-138.3,0-154.6,1.3-142.9,9.8c9,6.7,30.6,9,78.2,9.8
		c50.8,0,67.8,2.7,74.5,9.8C-4199-1466.1-4154-1465.5-4118.6-1478.6z M-4210.1-1532c11.7-7.7,33.3-9.8,96-9
		c77.1,1.3,106.9-4.5,106.9-18.9c0-4-80.3-6.7-212-5.9c-116.8,0-212,2.7-212,5.9c0,2.7,8.5,12.5,19.7,21.5
		c18.4,15.7,23.4,16.2,102.4,16.2C-4244.5-1521.7-4222.4-1524.3-4210.1-1532z M-3634.5-1623c7.2-9-4-39.9-14.9-41.8
		c-5.9-1.3-11.7,4-13.8,11.7c-2.7,11.2-7.7,13.8-25.5,11.7c-13.6-1.3-22.1-5.9-23.4-13c-1.9-8.5,5.3-13,28.2-18.9
		c37.8-9.8,50.3-29.3,33.3-54.3c-16.2-25.5-34.1-31.9-73.2-26.9c-28.2,3.2-35.1,6.7-35.1,16.2c0,30.6,21.5,45,29.3,19.7
		c5.3-16.2,43.1-18.4,55.6-3.2c7.7,9.8,1.3,14.4-47.6,31.4c-26.1,9-21.5,50.3,7.2,66.5C-3696.4-1613.2-3641.6-1612.7-3634.5-1623z
		 M-3486.3-1623.6c1.3-1.3,0-10.4-3.2-20.8c-7.7-22.1-24.7-27.4-30.1-8.5c-3.2,13-24.7,17.6-47.1,9c-13-5.3-29.3-36.4-29.3-56.7
		c0-30.1,26.1-37.2,77.1-20.8c22.1,7.2,18.4-13.8-5.3-26.1c-45.8-23.4-97.9-2.7-97.9,40.4c0,31.4,17.6,66.5,41.8,81.7
		c16.2,9.8,27.4,11.7,55.6,8.5C-3505.2-1619-3487.6-1621.7-3486.3-1623.6z M-3361-1626.8c0-9.8-4.5-13-16.2-13
		c-18.9,0-25.5-12.5-32.7-60.7c-4.5-30.1-4.5-30.6,12.5-30.6c21.5,0,22.9-17.6,2.7-22.9c-8.5-1.9-31.4-3.2-50.8-1.9
		c-26.9,1.3-35.9,4.5-35.9,11.7c0,5.9,7.2,10.4,20.2,11.7c18.4,1.9,20.2,4.5,27.4,39.9c10.4,50.8,10.4,52.9-8.5,52.9
		c-9.8,0-16.2,4-16.2,9c0,13,10.4,15.7,57.5,16.2C-3364.7-1614-3361-1615.1-3361-1626.8z M-3167.3-1628.4
		c1.9-8.5-1.9-11.7-13.8-11.7c-14.4,0-17.6-4-23.4-32.7c-11.7-54.3-10.4-60.1,13.6-57.5c16.2,1.3,22.1,5.9,24.7,18.4
		c1.9,9,9,17,15.7,18.4c11.2,2.7,11.7-0.8,7.7-25.5c-2.7-14.9-5.9-30.1-7.7-33.3c-1.9-2.7-29.3-5.3-62-5.3c-52.9,0-58,1.3-58,12.5
		c0,8.5,5.3,13.8,14.4,14.9c11.7,1.3,15.7,8.5,22.9,41.2c10.4,50.8,10.4,48.9-4.5,48.9s-17,6.7-5.3,18.4c5.3,5.3,21.5,7.7,41.2,6.7
		C-3177.2-1616.4-3168.6-1619.8-3167.3-1628.4z M-3087-1636.1c-1.9-15.7,0-17,24.7-17c17.6,0,26.1-2.7,26.1-9c0-9-18.9-17-43.1-17
		c-14.4,0-22.1-14.9-22.1-41.8c0-11.2,3.2-11.7,32.7-7.7c26.1,3.2,32.7,2.7,32.7-5.3c0-10.4-32.7-23.4-58-23.4
		c-30.1,0-35.9,8.5-31.4,44.4c2.7,25.5,1.9,34.1-5.9,36.4c-13,5.3-11.2,23.4,2.7,23.4c7.2,0,14.4,7.7,18.9,20.2
		C-3100.8-1608.7-3084.3-1610.5-3087-1636.1z M-3977.6-1599.4l10.4-19.7h-251.4c-220.5,0-251.4,1.3-247.9,9.8
		c3.5,8.5,23.4,9.8,126.6,9.8c100.6,0,124,1.9,130.6,9.8c6.7,7.7,28.2,9.8,114.9,9.8h106.4L-3977.6-1599.4z M-4210.1-1643
		c11.2-7.2,39.9-9.8,132.5-10.4c107.7-1.3,119.4-2.7,121.3-12.5c1.9-11.2-14.9-11.7-262.3-11.7h-265v18.4c0,10.4,1.9,20.2,4,22.9
		c1.9,1.9,60.7,3.2,129.8,3.2C-4249.2-1633.1-4221-1635.3-4210.1-1643z M-3948.4-1710.3v-19.7h-270.8c-236.2,0-270.8,1.3-270.8,9.8
		c0,8.5,19.7,9.8,136.5,9.8c112.8,0,137.8,1.9,144.2,9.8c6.7,7.7,30.1,9.8,134.3,9.8h126.6L-3948.4-1710.3L-3948.4-1710.3z
		 M-2918-1790.1c0-13-4-13-482-13c-315.8,0-483.6,1.9-486,6.7c-1.9,4-1.9,9.8,0,13c2.1,4.5,170.3,6.7,486,6.7
		C-2922-1777.1-2918-1777.1-2918-1790.1z M-4210.7-1753.4c10.4-7.2,38.6-9.8,123.4-9.8c101.9,0,136.5-4.5,124-16.2
		c-2.7-3.2-118.1-6.7-257.2-7.7c-270-3.2-262.3-4-263.1,30.1v14.9l129.8-0.8C-4251.9-1743.5-4221-1746.2-4210.7-1753.4z
		 M-3977.6-1821.2l-10.4-19.7l-232.2,1.3c-178.8,1.3-233,4-235.7,10.4c-1.9,5.9,24.2,7.7,116.3,7.7c96.6,0,120,1.9,128,9.8
		c8.5,7.7,31.9,9.8,127.2,9.8h117.3L-3977.6-1821.2z M-4212-1863c9.8-7.2,37.2-10.4,99.8-11.2c56.1-1.3,84.9-4.5,83.5-8.5
		c-4-12.5-50.3-15.7-210.2-16.2c-167.1-0.8-165.7-0.8-191.8,34.1c-8.5,10.4-2.7,11.2,98.7,11.2
		C-4249.8-1853.9-4222.4-1855.8-4212-1863z M-4065.7-1915.7c0-1.9-15.7-11.2-34.1-19.7c-31.4-14.4-43.1-16.2-119.4-15.7
		c-57.5,0-91.2,2.7-104.5,9c-18.4,7.7-15.7,8.5,43.1,9c47.6,0.8,65.2,3.2,71,10.4c6.7,7.7,23.4,9.8,75.8,9.8
		C-4096.5-1912.7-4065.7-1913.8-4065.7-1915.7z M-3774.1-1732.6c-5.3,6.7-13,28.7-17,50.3c-4.5,21.5-9,45-10.4,52.1
		c-2.1,10.4-8,13.6-28.2,13.6c-13.6,0-28.7-1.3-32.7-2.7c-10.9-3.2-9.8-20.8,1.9-20.8c5.3,0,9.8-1.9,9.8-4
		c0-10.4-50.3-87.5-56.7-87.5c-9.3,0-11.7-18.9-3.5-20.2c18.4-3.2,38.6-4,45-1.3c9.8,4,11.2,21.5,1.9,21.5c-3.2,0-6.7,3.2-6.7,6.7
		c0,4,13,6.7,29.3,6.7s29.5-2.7,29.5-6.7c0-3.2-4.5-6.7-9.8-6.7c-13.6,0-12.5-17.6,1.9-22.1c11.7-4,35.9-0.8,47.6,5.9
		C-3766.9-1744.3-3768.3-1739.8-3774.1-1732.6z M-3848.6-1698.6l20.5,39.4l14.6-39.4H-3848.6z M-2908.7-1726.8
		c-5.3,1.9-3.2,20.8,5.9,62.5l13,59.9h-18.9c-19.7,0-35.1-19.7-20.2-24.7c4.5-1.3,7.7-6.4,7.7-11.7c0-7.2-5.9-8.5-24.2-5.9
		c-28.7,4.5-50.3-5.3-69.2-30.6c-17-22.9-16.2-50.3,1.9-65.2c14.4-11.7,67.8-14.9,99.8-7.2
		C-2900.2-1746.2-2897.6-1730.5-2908.7-1726.8z M-2954-1723.6c-14.4-7.4-38,8-38,22.1c0,15.2,28.5,30.3,41,22.1
		C-2939.6-1687.4-2939.6-1715.9-2954-1723.6z"/>
</g>
</svg>
