<?xml version="1.0" encoding="utf-8"?>
<!-- Generator: Adobe Illustrator 19.0.0, SVG Export Plug-In . SVG Version: 6.00 Build 0)  -->
<svg version="1.1" id="Layer_1" xmlns="http://www.w3.org/2000/svg" xmlns:xlink="http://www.w3.org/1999/xlink" x="0px" y="0px"
	 viewBox="-448.8 271.9 60.1 18.1" style="enable-background:new -448.8 271.9 60.1 18.1;" xml:space="preserve">
<style type="text/css">
	.st0{fill:#FFFFFF;}
</style>
<g transform="translate(0.000000,125.000000) scale(0.100000,-0.100000)">
	<path class="st0" d="M-4348.5-1472.5c5.6-2,12.8-5.2,15.7-7.4c4.7-3.4,0-3.7-53.5-3.7c-52,0-58.1,0.5-53.7,3.7
		c3.4,2.5,11.5,3.4,29.4,3.7c19.1,0,25.5,1,28,3.7C-4378.7-1467.8-4361.8-1467.6-4348.5-1472.5z M-4382.9-1492.6
		c4.4-2.9,12.5-3.7,36.1-3.4c29,0.5,40.2-1.7,40.2-7.1c0-1.5-30.2-2.5-79.7-2.2c-43.9,0-79.7,1-79.7,2.2c0,1,3.2,4.7,7.4,8.1
		c6.9,5.9,8.8,6.1,38.5,6.1C-4395.8-1488.7-4387.5-1489.7-4382.9-1492.6z M-4166.5-1526.8c2.7-3.4-1.5-15-5.6-15.7
		c-2.2-0.5-4.4,1.5-5.2,4.4c-1,4.2-2.9,5.2-9.6,4.4c-5.1-0.5-8.3-2.2-8.8-4.9c-0.7-3.2,2-4.9,10.6-7.1c14.2-3.7,18.9-11,12.5-20.4
		c-6.1-9.6-12.8-12-27.5-10.1c-10.6,1.2-13.2,2.5-13.2,6.1c0,11.5,8.1,16.9,11,7.4c2-6.1,16.2-6.9,20.9-1.2
		c2.9,3.7,0.5,5.4-17.9,11.8c-9.8,3.4-8.1,18.9,2.7,25C-4189.8-1523.1-4169.2-1522.9-4166.5-1526.8z M-4110.8-1527
		c0.5-0.5,0-3.9-1.2-7.8c-2.9-8.3-9.3-10.3-11.3-3.2c-1.2,4.9-9.3,6.6-17.7,3.4c-4.9-2-11-13.7-11-21.3c0-11.3,9.8-14,29-7.8
		c8.3,2.7,6.9-5.2-2-9.8c-17.2-8.8-36.8-1-36.8,15.2c0,11.8,6.6,25,15.7,30.7c6.1,3.7,10.3,4.4,20.9,3.2
		C-4117.9-1525.3-4111.3-1526.3-4110.8-1527z M-4063.7-1528.2c0-3.7-1.7-4.9-6.1-4.9c-7.1,0-9.6-4.7-12.3-22.8
		c-1.7-11.3-1.7-11.5,4.7-11.5c8.1,0,8.6-6.6,1-8.6c-3.2-0.7-11.8-1.2-19.1-0.7c-10.1,0.5-13.5,1.7-13.5,4.4c0,2.2,2.7,3.9,7.6,4.4
		c6.9,0.7,7.6,1.7,10.3,15c3.9,19.1,3.9,19.9-3.2,19.9c-3.7,0-6.1,1.5-6.1,3.4c0,4.9,3.9,5.9,21.6,6.1
		C-4065.1-1523.4-4063.7-1523.8-4063.7-1528.2z M-3990.9-1528.8c0.7-3.2-0.7-4.4-5.2-4.4c-5.4,0-6.6-1.5-8.8-12.3
		c-4.4-20.4-3.9-22.6,5.1-21.6c6.1,0.5,8.3,2.2,9.3,6.9c0.7,3.4,3.4,6.4,5.9,6.9c4.2,1,4.4-0.3,2.9-9.6c-1-5.6-2.2-11.3-2.9-12.5
		c-0.7-1-11-2-23.3-2c-19.9,0-21.8,0.5-21.8,4.7c0,3.2,2,5.2,5.4,5.6c4.4,0.5,5.9,3.2,8.6,15.5c3.9,19.1,3.9,18.4-1.7,18.4
		s-6.4,2.5-2,6.9c2,2,8.1,2.9,15.5,2.5C-3994.6-1524.3-3991.4-1525.6-3990.9-1528.8z M-3960.7-1531.7c-0.7-5.9,0-6.4,9.3-6.4
		c6.6,0,9.8-1,9.8-3.4c0-3.4-7.1-6.4-16.2-6.4c-5.4,0-8.3-5.6-8.3-15.7c0-4.2,1.2-4.4,12.3-2.9c9.8,1.2,12.3,1,12.3-2
		c0-3.9-12.3-8.8-21.8-8.8c-11.3,0-13.5,3.2-11.8,16.7c1,9.6,0.7,12.8-2.2,13.7c-4.9,2-4.2,8.8,1,8.8c2.7,0,5.4,2.9,7.1,7.6
		C-3965.9-1521.4-3959.7-1522.1-3960.7-1531.7z M-4295.5-1517.9l3.9-7.4h-94.5c-82.9,0-94.5,0.5-93.2,3.7c1.3,3.2,8.8,3.7,47.6,3.7
		c37.8,0,46.6,0.7,49.1,3.7c2.5,2.9,10.6,3.7,43.2,3.7h40L-4295.5-1517.9z M-4382.9-1534.3c4.2-2.7,15-3.7,49.8-3.9
		c40.5-0.5,44.9-1,45.6-4.7c0.7-4.2-5.6-4.4-98.6-4.4h-99.6v6.9c0,3.9,0.7,7.6,1.5,8.6c0.7,0.7,22.8,1.2,48.8,1.2
		C-4397.6-1530.6-4387-1531.4-4382.9-1534.3z M-4284.5-1559.6v-7.4h-101.8c-88.8,0-101.8,0.5-101.8,3.7s7.4,3.7,51.3,3.7
		c42.4,0,51.8,0.7,54.2,3.7c2.5,2.9,11.3,3.7,50.5,3.7h47.6V-1559.6z M-3897.2-1589.6c0-4.9-1.5-4.9-181.2-4.9
		c-118.7,0-181.8,0.7-182.7,2.5c-0.7,1.5-0.7,3.7,0,4.9c0.8,1.7,64,2.5,182.7,2.5C-3898.7-1584.7-3897.2-1584.7-3897.2-1589.6z
		 M-4383.1-1575.8c3.9-2.7,14.5-3.7,46.4-3.7c38.3,0,51.3-1.7,46.6-6.1c-1-1.2-44.4-2.5-96.7-2.9c-101.5-1.2-98.6-1.5-98.9,11.3v5.6
		l48.8-0.3C-4398.6-1572.1-4387-1573.1-4383.1-1575.8z M-4295.5-1601.3l-3.9-7.4l-87.3,0.5c-67.2,0.5-87.6,1.5-88.6,3.9
		c-0.7,2.2,9.1,2.9,43.7,2.9c36.3,0,45.1,0.7,48.1,3.7c3.2,2.9,12,3.7,47.8,3.7h44.1L-4295.5-1601.3z M-4383.6-1617
		c3.7-2.7,14-3.9,37.5-4.2c21.1-0.5,31.9-1.7,31.4-3.2c-1.5-4.7-18.9-5.9-79-6.1c-62.8-0.3-62.3-0.3-72.1,12.8
		c-3.2,3.9-1,4.2,37.1,4.2C-4397.8-1613.6-4387.5-1614.3-4383.6-1617z M-4328.6-1636.8c0-0.7-5.9-4.2-12.8-7.4
		c-11.8-5.4-16.2-6.1-44.9-5.9c-21.6,0-34.3,1-39.3,3.4c-6.9,2.9-5.9,3.2,16.2,3.4c17.9,0.3,24.5,1.2,26.7,3.9
		c2.5,2.9,8.8,3.7,28.5,3.7C-4340.2-1635.7-4328.6-1636.1-4328.6-1636.8z M-4219-1568c-2,2.5-4.9,10.8-6.4,18.9
		c-1.7,8.1-3.4,16.9-3.9,19.6c-0.8,3.9-3,5.1-10.6,5.1c-5.1,0-10.8-0.5-12.3-1c-4.1-1.2-3.7-7.8,0.7-7.8c2,0,3.7-0.7,3.7-1.5
		c0-3.9-18.9-32.9-21.3-32.9c-3.5,0-4.4-7.1-1.3-7.6c6.9-1.2,14.5-1.5,16.9-0.5c3.7,1.5,4.2,8.1,0.7,8.1c-1.2,0-2.5,1.2-2.5,2.5
		c0,1.5,4.9,2.5,11,2.5s11.1-1,11.1-2.5c0-1.2-1.7-2.5-3.7-2.5c-5.1,0-4.7-6.6,0.7-8.3c4.4-1.5,13.5-0.3,17.9,2.2
		C-4216.3-1572.4-4216.8-1570.7-4219-1568z M-4247-1555.2l7.7,14.8l5.5-14.8H-4247z M-3893.7-1565.8c-2,0.7-1.2,7.8,2.2,23.5
		l4.9,22.5h-7.1c-7.4,0-13.2-7.4-7.6-9.3c1.7-0.5,2.9-2.4,2.9-4.4c0-2.7-2.2-3.2-9.1-2.2c-10.8,1.7-18.9-2-26-11.5
		c-6.4-8.6-6.1-18.9,0.7-24.5c5.4-4.4,25.5-5.6,37.5-2.7C-3890.5-1573.1-3889.5-1567.2-3893.7-1565.8z M-3910.7-1564.6
		c-5.4-2.8-14.3,3-14.3,8.3c0,5.7,10.7,11.4,15.4,8.3C-3905.3-1551-3905.3-1561.7-3910.7-1564.6z"/>
</g>
</svg>
